<svg width="257" height="263" viewBox="0 0 257 263" fill="none" xmlns="http://www.w3.org/2000/svg">
<g clip-path="url(#clip0_51_2)">
<path d="M256.304 134.094C256.304 123.36 255.433 115.527 253.548 107.404H130.976V155.852H202.923C201.473 167.892 193.64 186.024 176.233 198.208L175.989 199.83L214.744 229.853L217.429 230.121C242.088 207.347 256.304 173.839 256.304 134.094Z" fill="#4285F4"/>
<path d="M130.976 261.743C166.224 261.743 195.815 250.138 217.429 230.121L176.233 198.208C165.209 205.896 150.413 211.263 130.976 211.263C96.4531 211.263 67.1521 188.49 56.7071 157.013L55.1761 157.143L14.8781 188.33L14.3511 189.795C35.8191 232.441 79.9161 261.743 130.976 261.743Z" fill="#34A853"/>
<path d="M56.707 157.013C53.951 148.89 52.356 140.186 52.356 131.193C52.356 122.199 53.951 113.496 56.562 105.373L56.489 103.643L15.686 71.9551L14.351 72.5901C5.50303 90.2871 0.426025 110.16 0.426025 131.193C0.426025 152.226 5.50303 172.098 14.351 189.795L56.707 157.013Z" fill="#FBBC05"/>
<path d="M130.976 51.1221C155.49 51.1221 172.026 61.7111 181.455 70.5601L218.299 34.5861C195.671 13.5531 166.224 0.643066 130.976 0.643066C79.9161 0.643066 35.8191 29.9441 14.3511 72.5901L56.5621 105.373C67.1521 73.8961 96.4531 51.1221 130.976 51.1221Z" fill="#EB4335"/>
</g>
<defs>
<clipPath id="clip0_51_2">
<rect width="256" height="262" fill="white" transform="translate(0.426025 0.643066)"/>
</clipPath>
</defs>
</svg>
