<svg width="142" height="40" viewBox="0 0 142 40" fill="none" xmlns="http://www.w3.org/2000/svg">
<path d="M0 20C0 8.95431 8.95431 0 20 0V0C31.0457 0 40 8.95431 40 20V20C40 31.0457 31.0457 40 20 40V40C8.95431 40 0 31.0457 0 20V20Z" fill="#FAFF7F"/>
<path d="M15.1999 23.2008L15.199 15.2L23.1998 15.1991M20.8011 28.8008L20.8002 20.8L28.801 20.7991" stroke="#18181B" stroke-width="6.78893" stroke-linecap="round" stroke-linejoin="round"/>
<path d="M59.072 15.064C59.072 14.3387 58.9227 13.6987 58.624 13.144C58.3467 12.5893 57.9627 12.1307 57.472 11.768C56.9813 11.4053 56.416 11.128 55.776 10.936C55.136 10.744 54.464 10.648 53.76 10.648C53.1413 10.648 52.5547 10.7333 52 10.904C51.4453 11.0533 50.944 11.2773 50.496 11.576C50.0693 11.8747 49.728 12.248 49.472 12.696C49.216 13.1227 49.088 13.624 49.088 14.2V14.392C49.088 15.0107 49.216 15.544 49.472 15.992C49.728 16.4187 50.1013 16.792 50.592 17.112C51.104 17.4107 51.7333 17.6667 52.48 17.88C53.2267 18.072 54.1013 18.2427 55.104 18.392C57.4507 18.7547 59.1787 19.448 60.288 20.472C61.3973 21.4747 61.952 22.8293 61.952 24.536V24.92C61.952 25.88 61.7813 26.7653 61.44 27.576C61.12 28.3653 60.6293 29.048 59.968 29.624C59.328 30.2 58.528 30.648 57.568 30.968C56.608 31.288 55.4987 31.448 54.24 31.448C52.8107 31.448 51.5413 31.2453 50.432 30.84C49.344 30.4133 48.4267 29.8373 47.68 29.112C46.9547 28.3653 46.4 27.5013 46.016 26.52C45.632 25.5173 45.44 24.4293 45.44 23.256V22.296H48.128V23.064C48.128 25.0267 48.6613 26.4987 49.728 27.48C50.816 28.4613 52.32 28.952 54.24 28.952C55.904 28.952 57.152 28.5893 57.984 27.864C58.8373 27.1173 59.264 26.136 59.264 24.92V24.728C59.264 23.5547 58.8267 22.6587 57.952 22.04C57.0987 21.4213 55.7013 20.9733 53.76 20.696C52.6293 20.5467 51.6053 20.3227 50.688 20.024C49.792 19.704 49.024 19.2987 48.384 18.808C47.744 18.296 47.2533 17.688 46.912 16.984C46.5707 16.28 46.4 15.448 46.4 14.488V14.104C46.4 13.2293 46.5813 12.4293 46.944 11.704C47.3067 10.9787 47.808 10.3493 48.448 9.816C49.1093 9.28267 49.888 8.87733 50.784 8.6C51.7013 8.30133 52.704 8.152 53.792 8.152C55.0507 8.152 56.1707 8.33333 57.152 8.696C58.1547 9.05867 58.9973 9.54933 59.68 10.168C60.3627 10.7653 60.8747 11.48 61.216 12.312C61.5787 13.1227 61.76 13.976 61.76 14.872V16.216H59.072V15.064ZM68.8738 31H66.3778V8.6H68.8738V18.008H69.2578C69.7484 16.984 70.4311 16.1733 71.3058 15.576C72.2018 14.9787 73.2898 14.68 74.5698 14.68C76.2978 14.68 77.6951 15.256 78.7618 16.408C79.8498 17.5387 80.3938 19.2453 80.3938 21.528V31H77.8978V22.04C77.8978 20.376 77.5244 19.128 76.7778 18.296C76.0311 17.464 75.0178 17.048 73.7378 17.048C72.2231 17.048 71.0284 17.5707 70.1538 18.616C69.3004 19.64 68.8738 21.016 68.8738 22.744V31ZM97.4915 28.312H97.1075C96.5955 29.3787 95.8808 30.168 94.9635 30.68C94.0675 31.192 93.1182 31.448 92.1155 31.448C91.0702 31.448 90.0995 31.2773 89.2035 30.936C88.3075 30.5733 87.5182 30.0507 86.8355 29.368C86.1742 28.664 85.6515 27.8107 85.2675 26.808C84.8835 25.8053 84.6915 24.6427 84.6915 23.32V22.808C84.6915 21.5067 84.8835 20.3547 85.2675 19.352C85.6515 18.3493 86.1742 17.5067 86.8355 16.824C87.5182 16.12 88.3075 15.5867 89.2035 15.224C90.0995 14.8613 91.0488 14.68 92.0515 14.68C93.1395 14.68 94.1208 14.9253 94.9955 15.416C95.8915 15.8853 96.5955 16.6213 97.1075 17.624H97.4915V15.128H99.9875V27.736C99.9875 28.376 100.276 28.696 100.852 28.696H101.652V31H99.9555C99.2302 31 98.6328 30.7653 98.1635 30.296C97.7155 29.8267 97.4915 29.2293 97.4915 28.504V28.312ZM92.3715 29.08C93.1182 29.08 93.8008 28.9413 94.4195 28.664C95.0595 28.3867 95.6035 27.992 96.0515 27.48C96.4995 26.968 96.8515 26.36 97.1075 25.656C97.3635 24.9307 97.4915 24.1307 97.4915 23.256V22.872C97.4915 22.0187 97.3635 21.24 97.1075 20.536C96.8515 19.8107 96.4888 19.192 96.0195 18.68C95.5715 18.168 95.0275 17.7733 94.3875 17.496C93.7688 17.1973 93.0968 17.048 92.3715 17.048C91.6248 17.048 90.9422 17.1867 90.3235 17.464C89.7048 17.7413 89.1608 18.136 88.6915 18.648C88.2435 19.1387 87.8915 19.7467 87.6355 20.472C87.3795 21.176 87.2515 21.9547 87.2515 22.808V23.32C87.2515 25.1333 87.7208 26.552 88.6595 27.576C89.6195 28.5787 90.8568 29.08 92.3715 29.08ZM120.829 31H118.333V19.608C118.333 18.8613 118.163 18.2533 117.821 17.784C117.48 17.2933 116.936 17.048 116.189 17.048C115.485 17.048 114.909 17.3147 114.461 17.848C114.035 18.36 113.821 19.16 113.821 20.248V31H111.325V19.48C111.325 18.776 111.133 18.2 110.749 17.752C110.365 17.2827 109.853 17.048 109.213 17.048C108.445 17.048 107.848 17.3253 107.421 17.88C107.016 18.4347 106.813 19.16 106.813 20.056V31H104.317V15.128H106.813V16.856H107.197C107.475 16.1093 107.88 15.5653 108.413 15.224C108.947 14.8613 109.576 14.68 110.301 14.68C111.069 14.68 111.699 14.8827 112.189 15.288C112.701 15.6933 113.053 16.216 113.245 16.856H113.629C114.355 15.4053 115.507 14.68 117.085 14.68C118.28 14.68 119.197 15.064 119.837 15.832C120.499 16.5787 120.829 17.56 120.829 18.776V31ZM127.079 37.4H124.583V15.128H127.079V17.624H127.463C128.018 16.664 128.786 15.9387 129.767 15.448C130.748 14.936 131.815 14.68 132.967 14.68C133.948 14.68 134.876 14.8613 135.751 15.224C136.626 15.5867 137.394 16.1093 138.055 16.792C138.738 17.4747 139.271 18.3173 139.655 19.32C140.06 20.3227 140.263 21.464 140.263 22.744V23.384C140.263 24.6853 140.071 25.8373 139.687 26.84C139.303 27.8427 138.77 28.6853 138.087 29.368C137.426 30.0507 136.647 30.5733 135.751 30.936C134.855 31.2773 133.906 31.448 132.903 31.448C132.391 31.448 131.868 31.384 131.335 31.256C130.802 31.1493 130.29 30.9787 129.799 30.744C129.33 30.488 128.892 30.1893 128.487 29.848C128.082 29.4853 127.74 29.0587 127.463 28.568H127.079V37.4ZM132.391 29.08C133.159 29.08 133.863 28.952 134.503 28.696C135.143 28.4187 135.698 28.0347 136.167 27.544C136.658 27.0533 137.031 26.456 137.287 25.752C137.564 25.048 137.703 24.2587 137.703 23.384V22.744C137.703 21.8907 137.564 21.1227 137.287 20.44C137.031 19.736 136.658 19.1387 136.167 18.648C135.698 18.136 135.132 17.7413 134.471 17.464C133.831 17.1867 133.138 17.048 132.391 17.048C131.644 17.048 130.951 17.1973 130.311 17.496C129.671 17.7733 129.106 18.168 128.615 18.68C128.146 19.192 127.772 19.8107 127.495 20.536C127.218 21.24 127.079 22.0187 127.079 22.872V23.256C127.079 24.1307 127.218 24.9307 127.495 25.656C127.772 26.36 128.146 26.968 128.615 27.48C129.106 27.992 129.671 28.3867 130.311 28.664C130.951 28.9413 131.644 29.08 132.391 29.08Z" fill="#FAFAFA"/>
</svg>
